<svg width="16.000000" height="16.000000" viewBox="0 0 16 16" fill="none" xmlns="http://www.w3.org/2000/svg" xmlns:xlink="http://www.w3.org/1999/xlink">
	<desc>
			Created with Pixso.
	</desc>
	<defs>
		<clipPath id="clip1206_768">
			<rect id="asset / icon / schedule" width="16.000000" height="16.000000" fill="white" fill-opacity="0"/>
		</clipPath>
	</defs>
	<g clip-path="url(#clip1206_768)">
		<path id="Vector" d="M12.668 2L12 2L12 1.3335C12 0.966797 11.6992 0.666748 11.332 0.666748C10.9648 0.666748 10.668 0.966797 10.668 1.3335L10.668 2L5.33203 2L5.33203 1.3335C5.33203 0.966797 5.03516 0.666748 4.66797 0.666748C4.30078 0.666748 4 0.966797 4 1.3335L4 2L3.33203 2C2.59375 2 2.00781 2.6001 2.00781 3.3335L2 12.6667C2 13.4001 2.59375 14 3.33203 14L12.668 14C13.3984 14 14 13.4001 14 12.6667L14 3.3335C14 2.6001 13.3984 2 12.668 2ZM12 12.6667L4 12.6667C3.63281 12.6667 3.33203 12.3667 3.33203 12L3.33203 5.3335L12.668 5.3335L12.668 12C12.668 12.3667 12.3672 12.6667 12 12.6667ZM5.33203 6.66675L7.33203 6.66675C7.69922 6.66675 8 6.9668 8 7.3335L8 9.3335C8 9.7002 7.69922 10 7.33203 10L5.33203 10C4.96484 10 4.66797 9.7002 4.66797 9.3335L4.66797 7.3335C4.66797 6.9668 4.96484 6.66675 5.33203 6.66675Z" fill="#FF9D00" fill-opacity="1.000000" fill-rule="nonzero"/>
	</g>
</svg>
