<svg width="32.000000" height="32.000000" viewBox="0 0 32 32" fill="none" xmlns="http://www.w3.org/2000/svg" xmlns:xlink="http://www.w3.org/1999/xlink">
	<desc>
			Created with Pixso.
	</desc>
	<defs>
		<clipPath id="clip1211_839">
			<rect id="language" width="32.000000" height="32.000000" fill="white" fill-opacity="0"/>
		</clipPath>
	</defs>
	<g clip-path="url(#clip1211_839)">
		<path id="Vector" d="M15.9883 2.66675C8.62891 2.66675 2.66797 8.64014 2.66797 16C2.66797 23.3601 8.62891 29.3335 15.9883 29.3335C23.3594 29.3335 29.3359 23.3601 29.3359 16C29.3359 8.64014 23.3594 2.66675 15.9883 2.66675ZM25.2266 10.6667L21.293 10.6667C20.8672 9 20.2539 7.40015 19.4531 5.92017C21.9062 6.76001 23.9492 8.4668 25.2266 10.6667ZM16 5.38672C17.1094 6.98682 17.9766 8.76001 18.5469 10.6667L13.4531 10.6667C14.0273 8.76001 14.8945 6.98682 16 5.38672ZM5.67969 18.6667C5.46875 17.8135 5.33594 16.9202 5.33594 16C5.33594 15.0801 5.46875 14.1868 5.67969 13.3335L10.1875 13.3335C10.082 14.2134 10 15.0935 10 16C10 16.9067 10.082 17.7869 10.1875 18.6667L5.67969 18.6667ZM6.77344 21.3335L10.707 21.3335C11.1328 23 11.7461 24.6001 12.5469 26.0801C10.0938 25.24 8.05469 23.5466 6.77344 21.3335ZM10.707 10.6667L6.77344 10.6667C8.05469 8.45337 10.0938 6.76001 12.5469 5.92017C11.7461 7.40015 11.1328 9 10.707 10.6667ZM16 26.6135C14.8945 25.0134 14.0273 23.24 13.4531 21.3335L18.5469 21.3335C17.9766 23.24 17.1094 25.0134 16 26.6135ZM19.1211 18.6667L12.8828 18.6667C12.7617 17.7869 12.668 16.9067 12.668 16C12.668 15.0935 12.7617 14.2002 12.8828 13.3335L19.1211 13.3335C19.2422 14.2002 19.3359 15.0935 19.3359 16C19.3359 16.9067 19.2422 17.7869 19.1211 18.6667ZM19.4531 26.0801C20.2539 24.6001 20.8672 23 21.293 21.3335L25.2266 21.3335C23.9492 23.5334 21.9062 25.24 19.4531 26.0801ZM21.8164 18.6667C21.9219 17.7869 22 16.9067 22 16C22 15.0935 21.9219 14.2134 21.8164 13.3335L26.3203 13.3335C26.5352 14.1868 26.668 15.0801 26.668 16C26.668 16.9202 26.5352 17.8135 26.3203 18.6667L21.8164 18.6667Z" fill="#FFFFFF" fill-opacity="1.000000" fill-rule="nonzero"/>
	</g>
</svg>
