<svg width="175.980469" height="40.000000" viewBox="0 0 175.98 40" fill="none" xmlns="http://www.w3.org/2000/svg" xmlns:xlink="http://www.w3.org/1999/xlink">
	<desc>
			Created with Pixso.
	</desc>
	<defs/>
	<path id="Vista.Epic" d="M103.582 0L103.582 29.7239L122.689 29.7239L122.689 25.053L108.592 25.053L108.592 16.5393L119.314 16.5393L119.314 11.8684L108.592 11.8684L108.592 4.6709L122.287 4.6709L122.287 0L103.582 0ZM150.504 4.90454L150.504 0L155.238 0L155.238 4.90454L150.504 4.90454ZM163.984 28.6836C165.613 29.6604 167.629 30.1487 170.035 30.1487C171.211 30.1487 172.322 30.0142 173.369 29.7451C174.432 29.4763 175.301 29.1506 175.98 28.7686L175.492 24.8196C174.715 25.2441 173.908 25.5769 173.072 25.8174C172.236 26.0581 171.373 26.1782 170.482 26.1782C168.387 26.1782 166.766 25.5203 165.619 24.2039C164.473 22.8875 163.9 21.2173 163.9 19.1931C163.9 17.0842 164.473 15.407 165.619 14.1614C166.781 12.9016 168.422 12.2717 170.545 12.2717C171.451 12.2717 172.322 12.385 173.156 12.6116C173.992 12.8237 174.756 13.1069 175.449 13.4607L175.938 9.53296C175.23 9.15063 174.396 8.83936 173.434 8.59863C172.471 8.34399 171.408 8.21655 170.248 8.21655C167.729 8.21655 165.641 8.71191 163.984 9.70288C162.328 10.6936 161.09 12.0242 160.27 13.6943C159.463 15.3645 159.059 17.2188 159.059 19.2568C159.059 21.2527 159.471 23.0786 160.291 24.7346C161.125 26.3765 162.357 27.6929 163.984 28.6836ZM126.453 8.64111L126.453 40L131.188 40L131.188 28.0117C131.793 28.5676 132.445 29.011 133.141 29.3418C134.287 29.8796 135.689 30.1487 137.346 30.1487C139.412 30.1487 141.139 29.6533 142.525 28.6624C143.912 27.6716 144.961 26.3481 145.668 24.6921C146.375 23.0361 146.729 21.2102 146.729 19.2144C146.729 17.2188 146.369 15.3928 145.646 13.7368Q144.914 12.0574 143.717 10.8342Q143.143 10.2478 142.461 9.76636C141.074 8.77563 139.369 8.28027 137.346 8.28027C135.617 8.28027 134.152 8.61987 132.949 9.29932C132.166 9.73779 131.436 10.2776 130.756 10.9189L130.232 8.64111L126.453 8.64111ZM150.504 29.7239L150.504 8.64111L155.238 8.64111L155.238 29.7239L150.504 29.7239ZM140.486 24.2676C139.553 25.5273 138.25 26.1572 136.58 26.1572C135.393 26.1572 134.373 25.8882 133.523 25.3503C132.688 24.7983 132.051 24.0056 131.613 22.9724C131.174 21.9392 130.955 20.6865 130.955 19.2144C130.955 17.7708 131.174 16.5322 131.613 15.499C132.051 14.4656 132.688 13.6731 133.523 13.1211Q133.617 13.0586 133.713 13.0007Q134.928 12.2717 136.58 12.2717C138.25 12.2717 139.553 12.9016 140.486 14.1614C141.422 15.4211 141.889 17.1055 141.889 19.2144C141.889 21.3093 141.422 22.9937 140.486 24.2676Z" fill="#FFFFFF" fill-opacity="1.000000" fill-rule="evenodd"/>
	<path id="Vista.Epic" d="M10.5938 29.7239L0 0L5.03125 0L12.9941 22.6614L12.4199 24.2888L13.5664 24.2888L12.9941 22.6614L20.998 0L26.0293 0L15.4141 29.7239L10.5938 29.7239ZM29.1055 0L29.1055 4.90454L33.8398 4.90454L33.8398 0L29.1055 0ZM60.5234 29.363C61.3438 29.8867 62.4199 30.1487 63.75 30.1487L67.4023 30.1487L67.8047 26.2844L66.5312 26.2844C65.3984 26.2844 64.5781 26.2207 64.0684 26.0935C63.5586 25.9519 63.2344 25.6262 63.0918 25.1167C62.9512 24.593 62.8789 23.7439 62.8789 22.5691L62.8789 12.4841L67.8477 12.4841L67.8477 8.64111L62.8789 8.64111L62.8789 3.31201L58.1445 3.80054L58.1445 8.64111L55.3418 8.64111L54.918 12.4841L58.1445 12.4841L58.1445 24.7983C58.1445 25.6899 58.3359 26.5464 58.7188 27.3672C59.1016 28.1741 59.7031 28.8394 60.5234 29.363ZM44.8789 30.1487C43.3223 30.1487 41.9629 29.9858 40.8027 29.6604C39.6426 29.3206 38.6152 28.9314 37.7246 28.4927L38.1914 24.2676C39.041 24.8196 40.0098 25.3149 41.0996 25.7537C42.1895 26.1782 43.3926 26.3906 44.709 26.3906C45.8691 26.3906 46.7539 26.2065 47.3633 25.8386C47.9707 25.4565 48.2754 24.8762 48.2754 24.0977C48.2754 23.489 48.0996 22.9937 47.7461 22.6116C47.3906 22.2151 46.9102 21.8826 46.3008 21.6135C45.707 21.3306 45.0352 21.0615 44.2852 20.8069C43.1094 20.4104 42.0488 19.9646 41.0996 19.4692C40.1523 18.9597 39.3945 18.3086 38.8281 17.5159C38.2754 16.7234 38 15.697 38 14.4373C38 13.2766 38.2969 12.2292 38.8926 11.2952C39.4863 10.3467 40.3633 9.59668 41.5234 9.04468C42.6855 8.49268 44.1289 8.21655 45.8555 8.21655C47.2148 8.21655 48.3887 8.36523 49.3809 8.66235C50.3848 8.95972 51.291 9.32764 52.0977 9.76636L51.6309 13.9065C50.7949 13.2979 49.9258 12.7954 49.0195 12.3992C48.1133 11.9888 47.0879 11.7834 45.9414 11.7834C44.9219 11.7834 44.1152 11.9817 43.5195 12.3779C42.9395 12.7742 42.6504 13.3616 42.6504 14.1401Q42.6504 14.8501 42.9707 15.3564L42.9707 15.3564Q43.2461 15.7886 43.7539 16.0723C44.4902 16.4827 45.6367 16.9709 47.1934 17.5371C48.0137 17.8345 48.7793 18.1599 49.4863 18.5139C50.1934 18.8677 50.8164 19.2852 51.3535 19.7664C51.8926 20.2478 52.3105 20.821 52.6074 21.4861C52.9043 22.1514 53.0527 22.9441 53.0527 23.864C53.0527 25.053 52.7695 26.1218 52.2031 27.0701C51.6367 28.0183 50.7539 28.7686 49.5508 29.3206C48.3477 29.8726 46.7891 30.1487 44.8789 30.1487ZM75.9277 30.1487C74.7402 30.1487 73.6719 29.8938 72.7227 29.3843C71.7734 28.8748 71.0234 28.1528 70.4727 27.2188C69.9336 26.2844 69.666 25.1804 69.666 23.9065C69.666 22.7175 69.9336 21.6985 70.4727 20.8494C71.0234 19.9858 71.7461 19.271 72.6367 18.7048C73.543 18.1387 74.5273 17.6929 75.5879 17.3672C76.6641 17.0276 77.7402 16.7798 78.8164 16.6243C79.9062 16.4685 80.8965 16.3835 81.7891 16.3694C81.7461 14.8691 81.3984 13.8357 80.748 13.2695Q79.793 12.3992 77.7129 12.3992C76.8203 12.3992 75.9277 12.5266 75.0371 12.7812C74.1445 13.0361 73.1328 13.4819 72 14.1189L71.5117 10.2549C72.6309 9.63208 73.8203 9.15063 75.0801 8.81104Q75.8691 8.59155 76.6738 8.46289L76.6738 8.46289Q77.8145 8.28027 78.9863 8.28027C80.6426 8.28027 82.0293 8.57031 83.1465 9.15063Q83.498 9.33325 83.8145 9.56519Q85.002 10.4397 85.6738 12.0171C86.2539 13.3474 86.5449 15.1238 86.5449 17.3462L86.5449 22.5266C86.5449 23.5598 86.5938 24.3455 86.6934 24.8833C86.791 25.4211 86.9824 25.7891 87.2656 25.9873C87.5625 26.1853 88.0098 26.2844 88.6035 26.2844L89.1777 26.2844L88.668 30.1487L87.3516 30.1487C86.3887 30.1487 85.5879 30.0354 84.9512 29.8088C84.3145 29.5967 83.791 29.2922 83.3809 28.896C82.9844 28.4998 82.6445 28.0254 82.3613 27.4734C81.6406 28.2944 80.7051 28.9456 79.5586 29.4268C78.4277 29.908 77.2168 30.1487 75.9277 30.1487ZM29.1055 8.64111L29.1055 29.7239L33.8398 29.7239L33.8398 8.64111L29.1055 8.64111ZM77.584 26.4756C78.25 26.4756 78.9785 26.3057 79.7715 25.9661C80.5645 25.6121 81.2441 25.1167 81.8105 24.4797L81.8105 19.5967C80.4512 19.6392 79.2266 19.8159 78.1367 20.1274C77.0469 20.4246 76.1836 20.8706 75.5469 21.4651Q75.1699 21.8157 74.9453 22.2456Q74.6113 22.8828 74.6113 23.6943C74.6113 24.6426 74.8594 25.3433 75.3555 25.7961C75.8652 26.249 76.6074 26.4756 77.584 26.4756ZM91.6055 24.416L91.6055 29.7239L96.7871 29.7239L96.7871 24.416L91.6055 24.416Z" fill="#FF9D00" fill-opacity="1.000000" fill-rule="evenodd"/>
</svg>
