<svg width="16.000000" height="16.000000" viewBox="0 0 16 16" fill="none" xmlns="http://www.w3.org/2000/svg" xmlns:xlink="http://www.w3.org/1999/xlink">
	<desc>
			Created with Pixso.
	</desc>
	<defs>
		<clipPath id="clip1206_777">
			<rect id="asset / icon / schedule" width="16.000000" height="16.000000" fill="white" fill-opacity="0"/>
		</clipPath>
	</defs>
	<g clip-path="url(#clip1206_777)">
		<path id="Vector" d="M11 8C11.918 8 12.6602 7.25317 12.6602 6.33325C12.6602 5.41333 11.918 4.6665 11 4.6665C10.0781 4.6665 9.33203 5.41333 9.33203 6.33325C9.33203 7.25317 10.0781 8 11 8ZM6 7.33325C7.10547 7.33325 7.99219 6.43994 7.99219 5.33325C7.99219 4.22656 7.10547 3.33325 6 3.33325C4.89062 3.33325 4 4.22656 4 5.33325C4 6.43994 4.89062 7.33325 6 7.33325ZM11 9.33325C9.77734 9.33325 7.33203 9.94653 7.33203 11.1665L7.33203 12C7.33203 12.3667 7.63281 12.6665 8 12.6665L14 12.6665C14.3672 12.6665 14.6641 12.3667 14.6641 12L14.6641 11.1665C14.6641 9.94653 12.2188 9.33325 11 9.33325ZM6 8.6665C4.44531 8.6665 1.33203 9.44653 1.33203 11L1.33203 12C1.33203 12.3667 1.63281 12.6665 2 12.6665L6 12.6665L6 11.1665C6 10.5999 6.21875 9.60669 7.57812 8.85327C7 8.73315 6.4375 8.6665 6 8.6665Z" fill="#FF9D00" fill-opacity="1.000000" fill-rule="nonzero"/>
	</g>
</svg>
