<svg width="32.000000" height="32.000000" viewBox="0 0 32 32" fill="none" xmlns="http://www.w3.org/2000/svg" xmlns:xlink="http://www.w3.org/1999/xlink">
	<desc>
			Created with Pixso.
	</desc>
	<defs>
		<clipPath id="clip1211_842">
			<rect id="person_outline" width="32.000000" height="32.000000" fill="white" fill-opacity="0"/>
		</clipPath>
	</defs>
	<g clip-path="url(#clip1211_842)">
		<path id="Vector" d="M16 7.8667C17.5469 7.8667 18.7969 9.11987 18.7969 10.6665C18.7969 12.2131 17.5469 13.4666 16 13.4666C14.4531 13.4666 13.1992 12.2131 13.1992 10.6665C13.1992 9.11987 14.4531 7.8667 16 7.8667ZM16 19.8667C19.957 19.8667 24.1328 21.8132 24.1328 22.6665L24.1328 24.1333L7.86719 24.1333L7.86719 22.6665C7.86719 21.8132 12.0391 19.8667 16 19.8667ZM16 5.33325C13.0508 5.33325 10.6641 7.71997 10.6641 10.6665C10.6641 13.6133 13.0508 16 16 16C18.9453 16 21.332 13.6133 21.332 10.6665C21.332 7.71997 18.9453 5.33325 16 5.33325ZM16 17.3333C12.4375 17.3333 5.33203 19.1199 5.33203 22.6665L5.33203 25.3333C5.33203 26.0667 5.93359 26.6665 6.66406 26.6665L25.332 26.6665C26.0664 26.6665 26.6641 26.0667 26.6641 25.3333L26.6641 22.6665C26.6641 19.1199 19.5586 17.3333 16 17.3333Z" fill="#FFFFFF" fill-opacity="1.000000" fill-rule="nonzero"/>
	</g>
</svg>
