<svg width="16.000000" height="16.000000" viewBox="0 0 16 16" fill="none" xmlns="http://www.w3.org/2000/svg" xmlns:xlink="http://www.w3.org/1999/xlink">
	<desc>
			Created with Pixso.
	</desc>
	<defs>
		<clipPath id="clip1206_784">
			<rect id="east" width="16.000000" height="16.000000" fill="white" fill-opacity="0"/>
		</clipPath>
	</defs>
	<g clip-path="url(#clip1206_784)">
		<path id="Vector" d="M9.52344 3.80688C9.26562 4.06689 9.26562 4.48682 9.52344 4.74683L12.1133 7.3335L2 7.3335C1.63281 7.3335 1.33203 7.63354 1.33203 8.00024C1.33203 8.3667 1.63281 8.66675 2 8.66675L12.1172 8.66675L9.53125 11.2534C9.27344 11.5134 9.27344 11.9336 9.53125 12.1936C9.79297 12.4534 10.2109 12.4534 10.4727 12.1936L14.1992 8.4668C14.457 8.20679 14.457 7.78687 14.1992 7.52686L10.4648 3.80688C10.2109 3.54688 9.78516 3.54688 9.52344 3.80688Z" fill="#FFFFFF" fill-opacity="1.000000" fill-rule="nonzero"/>
	</g>
</svg>
