<svg width="32.000000" height="32.000000" viewBox="0 0 32 32" fill="none" xmlns="http://www.w3.org/2000/svg" xmlns:xlink="http://www.w3.org/1999/xlink">
	<desc>
			Created with Pixso.
	</desc>
	<defs>
		<clipPath id="clip1211_836">
			<rect id="search" width="32.000000" height="32.000000" fill="white" fill-opacity="0"/>
		</clipPath>
	</defs>
	<g clip-path="url(#clip1211_836)">
		<path id="Vector" d="M20.668 18.6667L19.6133 18.6667L19.2422 18.3069C20.8398 16.4402 21.668 13.8936 21.2148 11.1868C20.5859 7.47998 17.4961 4.52002 13.7617 4.06665C8.12109 3.37354 3.375 8.12012 4.06641 13.76C4.51953 17.4934 7.48047 20.5867 11.1875 21.2134C13.8945 21.6667 16.4414 20.8401 18.3086 19.24L18.668 19.6135L18.668 20.6667L24.3359 26.3335C24.8789 26.8801 25.7734 26.8801 26.3203 26.3335C26.8672 25.7869 26.8672 24.8936 26.3203 24.3467L20.668 18.6667ZM12.668 18.6667C9.34766 18.6667 6.66797 15.9868 6.66797 12.6667C6.66797 9.34668 9.34766 6.66675 12.668 6.66675C15.9883 6.66675 18.668 9.34668 18.668 12.6667C18.668 15.9868 15.9883 18.6667 12.668 18.6667Z" fill="#FFFFFF" fill-opacity="1.000000" fill-rule="nonzero"/>
	</g>
</svg>
