<svg width="96.000000" height="96.000000" viewBox="0 0 96 96" fill="none" xmlns="http://www.w3.org/2000/svg" xmlns:xlink="http://www.w3.org/1999/xlink">
	<desc>
			Created with Pixso.
	</desc>
	<defs/>
	<path id="Vector" d="M40 52C40 54.2091 38.2109 56 36 56C33.7891 56 32 54.2091 32 52C32 49.7909 33.7891 48 36 48C38.2109 48 40 49.7909 40 52Z" fill="#FF9D00" fill-opacity="1.000000" fill-rule="evenodd"/>
	<path id="Vector" d="M64 52C64 54.2091 62.2109 56 60 56C57.7891 56 56 54.2091 56 52C56 49.7909 57.7891 48 60 48C62.2109 48 64 49.7909 64 52Z" fill="#FF9D00" fill-opacity="1.000000" fill-rule="evenodd"/>
	<path id="Vector" d="M72 44.12C70.082 32.72 60.1602 24 48.2031 24C36.082 24 23.043 34.04 24.082 49.8C33.9609 45.76 41.4023 36.96 43.5234 26.24C48.7617 36.76 59.5234 44 72 44.12Z" fill="#FF9D00" fill-opacity="1.000000" fill-rule="nonzero"/>
	<path id="Vector" d="M83.9609 48C83.5195 26.52 66.7188 12 48 12C29.5586 12 12.6016 26.12 12.0391 48L8 48L8 72L20 72L20 48.76C20 33.4399 31.8008 20.04 47.1211 19.6C62.9609 19.12 76 31.84 76 47.6L76 76L44 76L44 84L84 84L84 72L88 72L88 48L83.9609 48Z" fill="#FF9D00" fill-opacity="1.000000" fill-rule="nonzero"/>
</svg>
