<svg width="96.000000" height="96.000000" viewBox="0 0 96 96" fill="none" xmlns="http://www.w3.org/2000/svg" xmlns:xlink="http://www.w3.org/1999/xlink">
	<desc>
			Created with Pixso.
	</desc>
	<defs/>
	<path id="Vector" d="M60 44L60 20L48 8L36 20L36 28L12 28L12 84L84 84L84 44L60 44ZM28 76L20 76L20 68L28 68L28 76ZM28 60L20 60L20 52L28 52L28 60ZM28 44L20 44L20 36L28 36L28 44ZM52 76L44 76L44 68L52 68L52 76ZM52 60L44 60L44 52L52 52L52 60ZM52 44L44 44L44 36L52 36L52 44ZM52 28L44 28L44 20L52 20L52 28ZM76 76L68 76L68 68L76 68L76 76ZM76 60L68 60L68 52L76 52L76 60Z" fill="#FF9D00" fill-opacity="1.000000" fill-rule="nonzero"/>
</svg>
