<svg width="40.000000" height="40.000000" viewBox="0 0 40 40" fill="none" xmlns="http://www.w3.org/2000/svg" xmlns:xlink="http://www.w3.org/1999/xlink">
	<desc>
			Created with Pixso.
	</desc>
	<defs>
		<clipPath id="clip1210_473">
			<rect id="flight_takeoff" width="40.000000" height="40.000000" fill="white" fill-opacity="0"/>
		</clipPath>
	</defs>
	<g clip-path="url(#clip1210_473)">
		<path id="Vector" d="M34.168 31.6668L5.83398 31.6668C4.91797 31.6668 4.16797 32.4168 4.16797 33.3335C4.16797 34.2501 4.91797 35.0001 5.83398 35.0001L34.168 35.0001C35.084 35.0001 35.834 34.2501 35.834 33.3335C35.834 32.4168 35.084 31.6668 34.168 31.6668ZM36.7832 16.0668C36.418 14.7335 35.0508 13.9501 33.7168 14.3001L24.8672 16.6668L14.0996 6.63345C13.6504 6.20013 13 6.05014 12.4004 6.2168C11.2676 6.53348 10.7344 7.83347 11.3164 8.85013L17.0508 18.7835L8.76758 21.0001L6.15039 18.9335C5.73438 18.6168 5.20117 18.5001 4.68359 18.6335L4.13281 18.7835C3.59961 18.9168 3.34961 19.5335 3.63281 20.0001L6.76758 25.4168C7.15039 26.0668 7.91797 26.3835 8.63281 26.2001L35 19.1335C36.334 18.7668 37.1328 17.4001 36.7832 16.0668Z" fill="#FF9D00" fill-opacity="1.000000" fill-rule="nonzero"/>
	</g>
</svg>
