<svg width="40.000000" height="40.000000" viewBox="0 0 40 40" fill="none" xmlns="http://www.w3.org/2000/svg" xmlns:xlink="http://www.w3.org/1999/xlink">
	<desc>
			Created with Pixso.
	</desc>
	<defs>
		<clipPath id="clip1210_467">
			<rect id="commute" width="40.000000" height="40.000000" fill="white" fill-opacity="0"/>
		</clipPath>
	</defs>
	<g clip-path="url(#clip1210_467)">
		<path id="Vector" d="M20 6.66675L8.33398 6.66675C5.56641 6.66675 3.33398 8.90009 3.33398 11.6667L3.33398 25.0001C3.33398 27.7668 5.56641 30.0001 8.33398 30.0001L7.05078 31.2834C6.58398 31.7501 6.58398 32.4834 7.05078 32.9501C7.51758 33.4167 8.25 33.4167 8.7168 32.9501L11.668 30.0001L15 30.0001L15 21.6667L7.5 21.6667C7.0332 21.6667 6.66797 21.3001 6.66797 20.8334L6.66797 10.8334C6.66797 10.3668 7.0332 10.0001 7.5 10.0001L20.834 10.0001C21.3008 10.0001 21.668 10.3668 21.668 10.8334L21.668 13.3334L25 13.3334L25 11.6667C25 8.90009 22.7676 6.66675 20 6.66675ZM8.33398 23.3334C9.25 23.3334 10 24.0834 10 25.0001C10 25.9167 9.25 26.6667 8.33398 26.6667C7.41797 26.6667 6.66797 25.9167 6.66797 25.0001C6.66797 24.0834 7.41797 23.3334 8.33398 23.3334ZM34.2832 16.1001C34.0508 15.4334 33.418 15.0001 32.668 15.0001L20.6836 15.0001C19.918 15.0001 19.3008 15.4334 19.0508 16.1001L16.6836 22.9501L16.6836 31.6834C16.6836 32.6001 17.4336 33.3334 18.3516 33.3334C19.2676 33.3334 20.0176 32.5834 20.0176 31.6667L20.0176 30.0001L33.3516 30.0001L33.3516 31.6667C33.3516 32.5834 34.1016 33.3334 35.0176 33.3334C35.9336 33.3334 36.668 32.6001 36.6836 31.6834L36.668 22.9501L34.2832 16.1001ZM21.2832 16.6667L32.084 16.6667C32.4336 16.6667 32.75 16.9001 32.8672 17.2334L34.0176 20.5667C34.2012 21.1001 33.8008 21.6667 33.2344 21.6667L20.1504 21.6667C19.584 21.6667 19.1836 21.1001 19.3672 20.5667L20.5176 17.2334C20.6016 16.9001 20.918 16.6667 21.2832 16.6667ZM20 26.6667C19.084 26.6667 18.334 25.9167 18.334 25.0001C18.334 24.0834 19.084 23.3334 20 23.3334C20.918 23.3334 21.668 24.0834 21.668 25.0001C21.668 25.9167 20.918 26.6667 20 26.6667ZM33.334 26.6667C32.418 26.6667 31.668 25.9167 31.668 25.0001C31.668 24.0834 32.418 23.3334 33.334 23.3334C34.25 23.3334 35 24.0834 35 25.0001C35 25.9167 34.25 26.6667 33.334 26.6667Z" fill="#FF9D00" fill-opacity="1.000000" fill-rule="nonzero"/>
	</g>
</svg>
