<svg width="40.000000" height="40.000000" viewBox="0 0 40 40" fill="none" xmlns="http://www.w3.org/2000/svg" xmlns:xlink="http://www.w3.org/1999/xlink">
	<desc>
			Created with Pixso.
	</desc>
	<defs>
		<clipPath id="clip1211_540">
			<rect id="directions_boat" width="40.000000" height="40.000000" fill="white" fill-opacity="0"/>
		</clipPath>
	</defs>
	<g clip-path="url(#clip1211_540)">
		<path id="Vector" d="M33.332 35.0001C31.0156 35.0001 28.6992 34.2167 26.666 32.8001C22.5996 35.6501 17.3984 35.6501 13.332 32.8001C11.2988 34.2167 8.98242 35.0001 6.66602 35.0001L3.33203 35.0001L3.33203 38.3334L6.66602 38.3334C8.9668 38.3334 11.2324 37.7501 13.332 36.6834C17.5332 38.8334 22.4668 38.8334 26.666 36.6834C28.7656 37.7667 31.0332 38.3334 33.332 38.3334L36.666 38.3334L36.666 35.0001L33.332 35.0001ZM6.58203 31.6667L6.66602 31.6667C9.33203 31.6667 11.6992 30.2001 13.332 28.3334C14.9668 30.2001 17.332 31.6667 20 31.6667C22.666 31.6667 25.0332 30.2001 26.666 28.3334C28.2988 30.2001 30.666 31.6667 33.332 31.6667L33.416 31.6667L37.0488 18.9167L33.332 17.7001L33.332 6.66675L25 6.66675L25 1.66675L15 1.66675L15 6.66675L6.66602 6.66675L6.66602 17.7001L2.94922 18.9167L6.58203 31.6667ZM10 10.0001L30 10.0001L30 16.6168L20 13.3334L10 16.6168L10 10.0001Z" fill="#FF9D00" fill-opacity="1.000000" fill-rule="nonzero"/>
	</g>
</svg>
